<?xml version="1.0" standalone="no"?>
<!DOCTYPE svg PUBLIC "-//W3C//DTD SVG 20010904//EN"
 "http://www.w3.org/TR/2001/REC-SVG-20010904/DTD/svg10.dtd">
<svg version="1.0" xmlns="http://www.w3.org/2000/svg"
 width="296.000000pt" height="66.000000pt" viewBox="0 0 296.000000 66.000000"
 preserveAspectRatio="xMidYMid meet">
<metadata>
Created by potrace 1.15, written by Peter Selinger 2001-2017
</metadata>
<g transform="translate(0.000000,66.000000) scale(0.100000,-0.100000)"
fill="#000000" stroke="none">
<path d="M1332 646 c-107 -35 -163 -121 -163 -251 0 -98 31 -170 90 -213 106
-77 279 -65 362 25 52 55 64 91 64 188 0 69 -5 98 -19 125 -26 50 -65 89 -111
112 -51 27 -163 33 -223 14z m170 -102 c32 -29 48 -77 48 -149 0 -105 -33
-160 -104 -172 -49 -8 -91 12 -118 56 -33 52 -33 180 -1 232 13 20 33 41 45
47 32 16 105 8 130 -14z"/>
<path d="M1885 648 c-86 -30 -127 -126 -91 -213 19 -45 52 -64 155 -92 77 -20
111 -40 111 -65 0 -5 -12 -21 -26 -35 -24 -23 -31 -25 -88 -21 -34 3 -84 15
-110 26 -54 24 -59 19 -54 -44 3 -33 7 -39 43 -52 24 -9 79 -15 140 -16 83 -1
107 3 139 20 49 25 76 74 76 137 0 94 -40 130 -182 161 -82 18 -101 32 -96 68
7 49 85 61 187 29 l61 -19 0 53 0 53 -63 11 c-78 13 -162 13 -202 -1z"/>
<path d="M2692 641 c-64 -22 -117 -70 -144 -129 -26 -58 -26 -175 0 -234 53
-120 200 -175 354 -132 l58 17 0 52 0 52 -41 -20 c-93 -46 -188 -29 -231 42
-18 28 -23 51 -23 106 0 55 5 78 23 106 43 71 138 88 231 42 l41 -20 0 52 0
52 -58 17 c-75 21 -144 20 -210 -3z"/>
<path d="M101 404 c-50 -135 -91 -250 -91 -255 0 -5 28 -9 63 -9 l63 0 15 48
15 47 106 3 106 3 12 -51 12 -50 69 0 69 0 -11 28 c-6 15 -46 121 -89 237 -43
116 -81 218 -85 228 -6 14 -20 17 -85 17 l-77 0 -92 -246z"/>
<path d="M600 395 l0 -255 65 0 65 0 2 169 3 170 90 -170 89 -169 73 0 73 0 0
255 0 255 -60 0 -60 0 -2 -172 -3 -173 -90 170 -91 170 -77 3 -77 3 0 -256z"/>
<path d="M2290 396 l0 -255 -26 -20 c-15 -12 -37 -21 -50 -21 -22 0 -24 -4
-24 -51 l0 -52 60 6 c98 9 154 54 171 138 4 24 8 149 9 277 l0 232 -70 0 -70
0 0 -254z"/>
</g>
</svg>
