<?xml version="1.0" standalone="no"?>
<!DOCTYPE svg PUBLIC "-//W3C//DTD SVG 20010904//EN"
 "http://www.w3.org/TR/2001/REC-SVG-20010904/DTD/svg10.dtd">
<svg version="1.0" xmlns="http://www.w3.org/2000/svg"
 width="2000.000000pt" height="1000.000000pt" viewBox="0 0 2000.000000 1000.000000"
 preserveAspectRatio="xMidYMid meet">
<metadata>
Created by potrace 1.15, written by Peter Selinger 2001-2017
</metadata>
<g transform="translate(0.000000,1000.000000) scale(0.100000,-0.100000)"
fill="#000000" stroke="none">
<path d="M10614 7250 c-22 -16 -43 -33 -49 -38 -117 -94 -832 -602 -848 -602
-11 0 -73 17 -136 39 -190 63 -283 84 -501 111 -162 20 -440 6 -580 -29 -19
-5 -60 -15 -90 -21 -100 -23 -257 -78 -365 -129 -58 -28 -108 -51 -110 -51
-19 0 -286 -183 -327 -223 -20 -21 -55 -22 -105 -3 -21 8 -72 24 -113 36 -41
12 -102 31 -135 41 -33 11 -85 27 -115 35 -30 9 -64 20 -75 24 -11 4 -47 16
-80 26 -33 9 -91 28 -130 40 -159 51 -332 104 -339 104 -4 0 7 -18 26 -41 18
-22 44 -56 58 -74 14 -18 90 -117 170 -221 145 -188 234 -304 343 -446 31 -41
57 -85 57 -97 0 -12 -10 -38 -23 -59 -20 -32 -72 -137 -97 -197 -19 -44 -52
-152 -72 -233 -18 -74 -21 -118 -22 -297 0 -242 6 -284 80 -510 36 -108 91
-230 164 -361 74 -132 290 -409 313 -401 6 2 82 104 169 228 170 241 166 231
122 301 -13 21 -24 40 -24 43 0 3 -13 33 -29 68 -218 463 -188 979 77 1357 62
87 198 221 302 297 81 58 212 133 255 145 11 4 43 15 72 26 120 46 198 57 408
57 206 -1 236 -4 417 -54 145 -39 307 -106 413 -171 35 -21 45 -18 71 26 11
17 71 104 134 193 186 262 337 477 455 644 61 87 154 219 208 294 116 164 121
177 51 123z"/>
<path d="M10315 6132 c-17 -26 -93 -139 -168 -250 -145 -215 -143 -209 -112
-277 34 -76 45 -104 45 -118 0 -9 5 -19 10 -22 6 -3 10 -15 10 -25 0 -11 6
-34 14 -52 8 -18 19 -51 25 -73 5 -22 17 -65 25 -95 54 -200 72 -418 51 -596
-8 -72 -19 -144 -24 -160 -5 -16 -17 -56 -27 -89 -9 -33 -21 -67 -25 -75 -94
-193 -136 -255 -252 -367 -104 -101 -132 -120 -284 -199 -335 -173 -681 -200
-1053 -81 -106 33 -283 117 -390 185 -19 12 -38 22 -41 22 -3 0 -44 -55 -90
-122 -134 -195 -219 -318 -289 -417 -36 -51 -106 -152 -157 -224 -51 -73 -119
-170 -152 -217 -162 -230 -211 -303 -207 -308 3 -2 36 20 73 50 37 30 89 70
114 89 26 19 131 99 234 179 103 80 229 177 280 215 51 39 108 82 126 97 38
30 41 29 144 -17 134 -59 318 -118 470 -149 163 -34 216 -39 419 -39 202 0
337 13 441 43 206 59 234 69 365 133 155 75 296 170 413 276 63 58 63 58 162
28 55 -16 152 -44 203 -58 17 -5 47 -13 65 -19 70 -20 137 -40 257 -74 69 -19
139 -40 155 -45 17 -5 57 -17 90 -26 33 -9 79 -23 102 -32 75 -26 82 -15 32
47 -25 30 -63 80 -86 110 -41 55 -96 126 -313 405 -170 219 -200 259 -200 267
0 4 8 31 18 60 37 106 77 244 91 318 38 202 41 231 41 436 0 237 -16 348 -80
569 -38 132 -136 330 -227 457 -105 148 -230 288 -255 288 -7 0 -27 -22 -43
-48z"/>
<path d="M8811 6025 c-6 -55 -71 -389 -77 -395 -5 -4 -31 -13 -58 -19 -146
-36 -291 -166 -361 -326 -28 -63 -65 -204 -65 -248 0 -26 3 -28 28 -23 15 3
50 8 77 11 28 3 59 8 70 10 11 2 23 4 27 4 3 1 27 44 52 96 66 135 154 221
276 269 65 26 86 29 175 28 86 -1 166 -23 241 -67 93 -55 202 -211 236 -339
l13 -48 65 6 c36 3 74 8 85 10 11 2 43 7 70 10 28 3 66 8 85 11 19 2 58 7 85
10 65 8 111 14 160 22 l40 6 -35 8 c-19 5 -44 11 -55 13 -11 3 -87 18 -168 34
-81 16 -149 31 -151 33 -2 2 -19 38 -39 79 -98 207 -287 363 -502 416 -38 9
-76 18 -83 20 -7 2 -38 59 -70 126 -87 187 -120 254 -121 243z"/>
<path d="M4314 5884 c-22 -8 -57 -31 -77 -52 -20 -20 -360 -524 -756 -1119
l-720 -1083 237 0 237 1 475 750 475 751 3 -751 2 -751 200 0 200 0 -2 1073
c-3 1065 -3 1072 -24 1112 -32 61 -74 85 -148 84 -34 0 -79 -7 -102 -15z"/>
<path d="M4965 5879 c-45 -10 -86 -44 -112 -92 -17 -30 -18 -102 -21 -1094
l-2 -1063 195 0 195 0 2 772 3 772 554 -728 c558 -733 602 -786 689 -823 45
-19 120 -21 159 -4 47 19 71 66 83 157 7 51 10 439 8 1094 l-3 1015 -190 0
-190 0 -5 -773 -5 -772 -559 735 c-308 404 -575 747 -594 762 -34 25 -118 54
-152 52 -8 -1 -33 -5 -55 -10z"/>
<path d="M11706 5879 c-39 -5 -107 -22 -153 -38 -202 -69 -334 -198 -400 -388
-23 -66 -27 -95 -27 -188 0 -121 15 -188 64 -285 69 -137 200 -246 353 -296
74 -24 103 -28 302 -35 226 -7 266 -14 347 -55 67 -34 110 -74 143 -136 40
-73 42 -171 4 -244 -31 -60 -107 -124 -186 -155 -58 -24 -61 -24 -525 -27
l-468 -3 0 -199 0 -200 453 0 c357 0 467 3 522 15 274 57 463 210 550 445 37
99 46 287 21 403 -54 243 -227 428 -468 498 -61 18 -111 23 -298 28 -203 6
-229 9 -266 28 -172 91 -180 313 -14 407 l55 31 433 3 432 3 -2 197 -3 197
-400 1 c-220 1 -431 -2 -469 -7z"/>
<path d="M13605 5878 c-3 -7 -6 -330 -8 -718 -4 -776 -3 -762 -67 -890 -56
-111 -128 -172 -253 -213 -50 -16 -99 -21 -247 -26 l-185 -6 -3 -197 -2 -198
162 0 c177 0 260 9 381 40 156 40 282 113 382 222 78 84 120 157 161 276 69
200 69 207 69 1002 l0 715 -193 3 c-149 2 -193 0 -197 -10z"/>
<path d="M15164 5880 c-394 -39 -713 -249 -874 -575 -90 -182 -128 -371 -117
-584 26 -526 342 -927 835 -1058 90 -24 117 -26 365 -31 l267 -4 -2 198 -3
199 -250 6 c-271 6 -309 13 -431 70 -141 67 -248 173 -315 314 -59 122 -73
190 -73 335 0 150 16 218 78 345 88 179 245 306 448 366 63 18 106 22 311 26
l237 5 -2 197 -3 196 -195 1 c-107 1 -231 -2 -276 -6z"/>
<path d="M8302 4875 c-46 -7 -108 -16 -137 -20 -29 -3 -63 -8 -76 -10 -13 -3
-53 -8 -89 -11 -127 -13 -120 -19 71 -53 101 -19 189 -36 194 -38 6 -2 20 -32
33 -66 53 -149 191 -326 305 -392 76 -44 177 -81 254 -94 l70 -12 89 -180 c65
-133 91 -175 96 -162 4 10 18 86 33 168 14 83 28 162 31 176 4 20 18 32 57 50
158 72 301 205 367 343 36 76 70 202 70 261 0 24 -3 26 -32 21 -18 -3 -53 -8
-78 -11 -25 -3 -54 -8 -65 -10 -11 -2 -27 -4 -36 -4 -10 -1 -36 -35 -63 -84
-134 -238 -286 -340 -483 -323 -206 17 -380 175 -439 399 l-18 67 -36 -1 c-19
-1 -72 -7 -118 -14z"/>
</g>
</svg>
